<svg width="17" height="19" viewBox="0 0 17 19" fill="none" xmlns="http://www.w3.org/2000/svg">
<path d="M3.4937 16.0092C3.838 16.0092 4.10199 15.7166 4.10199 15.3122L4.09073 12.7604L5.14667 12.1646L8.01672 10.3097L7.8213 13.6708V14.8628L5.54877 16.1219C5.18144 16.3244 5.06635 16.6952 5.25001 16.9873C5.44543 17.336 5.81276 17.3806 6.16833 17.1787L7.8213 16.2567V18.2915C7.8213 18.7074 8.09704 19 8.49865 19C8.92329 19 9.17601 18.7074 9.17601 18.2915V16.2567L10.8172 17.1787C11.1733 17.3811 11.5406 17.336 11.7473 16.9988C11.931 16.6952 11.8046 16.3244 11.4373 16.1219L9.17601 14.8628V13.6708L8.98059 10.3097L11.8506 12.1531L12.9066 12.7489L12.8836 15.3122C12.8836 15.7171 13.148 16.0092 13.5036 16.0092C13.9165 16.0092 14.1349 15.7056 14.1349 15.3122V13.4573L15.9485 14.4805C16.3159 14.6829 16.6945 14.6042 16.8899 14.2445C17.0966 13.9073 16.9815 13.5135 16.6254 13.3225L14.8123 12.2994L16.4535 11.3664C16.8096 11.164 16.9589 10.8268 16.7523 10.4896C16.5686 10.1859 16.2013 10.0962 15.8339 10.3097L13.5839 11.6024L12.528 11.0067L9.45126 9.5L12.528 7.99382L13.5839 7.38654L15.8339 8.67927C16.1895 8.89273 16.5799 8.80303 16.7635 8.51043C16.9585 8.16218 16.8096 7.82449 16.4535 7.62255L14.8235 6.68957L16.6259 5.67746C16.9932 5.464 17.1078 5.10424 16.8899 4.74448C16.6945 4.40727 16.3159 4.30606 15.9485 4.51952L14.1349 5.54267L14.1232 3.67672C14.1232 3.28339 13.9165 2.97927 13.5036 2.99079C13.1476 2.99079 12.8836 3.27188 12.8836 3.67672L12.9066 6.23916L11.8506 6.83492L8.98059 8.67879L9.17601 5.31722V4.1257L11.4373 2.86703C11.8046 2.6646 11.931 2.29333 11.7473 2.00121C11.5406 1.65297 11.1733 1.60788 10.8172 1.8103L9.17601 2.73224V0.69697C9.17601 0.281091 8.92329 0 8.49865 0C8.09704 0 7.8213 0.281091 7.8213 0.69697V2.73224L6.16833 1.8103C5.81276 1.61891 5.44543 1.65297 5.25001 2.00121C5.06635 2.29381 5.18144 2.6646 5.54877 2.86703L7.8213 4.12618V5.3177L8.01672 8.69079L5.14667 6.8354L4.09073 6.2286L4.10199 3.67672C4.10199 3.27188 3.838 2.99079 3.4937 2.99079C3.08082 2.99079 2.86238 3.28339 2.86238 3.67672L2.85112 5.53163L1.04876 4.51952C0.693191 4.31709 0.302844 4.40727 0.107426 4.74448C-0.110522 5.10424 0.0158391 5.47503 0.371902 5.67746L2.17377 6.68957L0.543811 7.62255C0.187749 7.82497 0.027104 8.15115 0.233787 8.51091C0.406186 8.80303 0.807797 8.89273 1.16386 8.67927L3.41337 7.39758L4.46932 7.99333L7.54654 9.5L4.46981 11.0062L3.41386 11.6024L1.16386 10.3092C0.796533 10.0958 0.41794 10.1859 0.245541 10.4781C0.050613 10.8378 0.188238 11.164 0.544301 11.3664L2.17426 12.2994L0.371902 13.3225C0.0163288 13.5135 -0.0982771 13.9068 0.107916 14.2445C0.314599 14.6042 0.693191 14.6714 1.04925 14.4805L2.85161 13.4573L2.86287 15.3122C2.86287 15.7056 3.08082 16.0092 3.49468 16.0092" fill="#2E58F0"/>
</svg>
