<svg xmlns="http://www.w3.org/2000/svg" xmlns:xlink="http://www.w3.org/1999/xlink" width="250" height="250" viewBox="0 0 250 250">
  <defs>
    <clipPath id="clip-path">
      <rect id="Rectangle_9475" data-name="Rectangle 9475" width="160.086" height="179.944" fill="#2e58f0"/>
    </clipPath>
    <clipPath id="clip-Cold">
      <rect width="250" height="250"/>
    </clipPath>
  </defs>
  <g id="Cold" clip-path="url(#clip-Cold)">
    <g id="Group_36898" data-name="Group 36898" transform="translate(44.957 35.027)">
      <g id="Group_36895" data-name="Group 36895" clip-path="url(#clip-path)">
        <path id="Path_70670" data-name="Path 70670" d="M78.668,0h2.806C85.2,1.418,86.6,4.135,86.463,8.081c-.19,5.264-.05,10.54-.042,15.812,0,.487.067.974.119,1.668.667-.472,1.143-.792,1.6-1.135,4.537-3.4,9.038-6.857,13.618-10.2a6.375,6.375,0,0,1,10.06,3.24c.821,2.743-.163,5.366-2.8,7.35-7.054,5.308-14.1,10.629-21.2,15.88a3.158,3.158,0,0,0-1.439,2.9c.054,10.952.03,21.9.034,32.857,0,.613.051,1.226.085,1.994.442-.205.706-.3.942-.441q14.795-8.9,29.562-17.843a2.671,2.671,0,0,0,1.019-1.788c.839-7.562,1.575-15.136,2.4-22.7a31.079,31.079,0,0,1,1.11-6.712c1-2.918,4.381-4.335,7.377-3.546a6.551,6.551,0,0,1,4.724,7.268c-.645,6.1-1.271,12.205-1.933,18.578.773-.421,1.333-.7,1.867-1.022,4.758-2.858,9.5-5.739,14.27-8.583,3.531-2.107,7.414-1.269,9.3,1.96,1.866,3.2.784,6.92-2.672,9.03-3.74,2.283-7.508,4.52-11.261,6.783-1.538.928-3.067,1.872-4.779,2.918.75.338,1.261.587,1.785.8,5.239,2.144,10.5,4.234,15.716,6.44a6.328,6.328,0,0,1,3.466,8.7c-1.524,3.233-5.018,4.492-8.619,3.037q-12.42-5.019-24.808-10.116a2.664,2.664,0,0,0-2.727.2q-14.531,8.829-29.11,17.576c-.472.284-.913.619-1.492,1.016.673.426,1.154.744,1.647,1.042,8.607,5.187,17.334,10.189,25.764,15.65,3.263,2.114,5.858,2.321,9.36.717,7.052-3.229,14.324-5.979,21.527-8.871,4.9-1.968,9.647,1.461,9.1,6.563-.3,2.8-2.05,4.468-4.568,5.484-5.619,2.265-11.225,4.561-17.1,6.952.757.482,1.279.831,1.817,1.155,4.7,2.836,9.418,5.654,14.107,8.513a9.453,9.453,0,0,1,2.185,1.727,6.405,6.405,0,0,1,.06,8.234,6.311,6.311,0,0,1-8.233,1.371c-4.936-2.9-9.822-5.889-14.732-8.835-.536-.322-1.094-.607-1.722-.953a4.016,4.016,0,0,0-.075.678q.921,8.907,1.856,17.814c.441,4.165-2.431,7.494-6.454,7.451-3.621-.038-6.012-2.627-6.418-6.752q-1.3-13.194-2.747-26.371a3.067,3.067,0,0,0-1.3-1.98c-9.58-5.836-19.2-11.6-28.818-17.377-.418-.251-.874-.437-1.359-.676a3.962,3.962,0,0,0-.109.545c-.007,11.655-.029,23.31.034,34.965a2.946,2.946,0,0,0,1.117,1.937c2.847,2.242,5.778,4.376,8.676,6.553q6.591,4.953,13.173,9.916a6.217,6.217,0,0,1,2.5,6.51,5.976,5.976,0,0,1-4.209,4.754,6.5,6.5,0,0,1-6.264-1.185c-4.423-3.36-8.875-6.682-13.319-10.015-.485-.363-.995-.693-1.724-1.2,0,6.082-.14,11.817.048,17.541.129,3.946-1.272,6.659-4.99,8.081H78.668c-3.776-1.346-5.214-4.051-5.08-8.011.177-5.207.046-10.424.039-15.636,0-.555-.058-1.111-.1-1.9-.634.435-1.065.709-1.472,1.015-4.584,3.438-9.135,6.921-13.756,10.308a6.372,6.372,0,0,1-9.607-2.1c-1.517-2.893-.689-6.179,2.2-8.364q10.7-8.093,21.464-16.109a2.879,2.879,0,0,0,1.3-2.621c-.041-11.069-.023-22.138-.029-33.207,0-.556-.058-1.112-.093-1.747a4.214,4.214,0,0,0-.664.225q-14.944,8.99-29.86,18.027a2.762,2.762,0,0,0-1.041,1.809c-.36,2.667-.561,5.354-.839,8.032-.675,6.52-1.322,13.044-2.06,19.557a6.179,6.179,0,0,1-4.964,5.448c-4.464.9-8.046-2.433-7.671-7.283.307-3.967.806-7.918,1.206-11.878.22-2.171.414-4.344.647-6.815-.886.493-1.446.784-1.986,1.109-4.707,2.83-9.4,5.686-14.117,8.5-3.54,2.108-7.4,1.249-9.285-2.007-1.864-3.224-.775-6.908,2.7-9.011,4.149-2.51,8.316-4.989,12.471-7.488,1.141-.686,2.266-1.4,3.605-2.223-.811-.354-1.381-.616-1.96-.852-5.188-2.115-10.393-4.19-15.562-6.349A6.351,6.351,0,0,1,.71,101.524C2.258,98.4,5.717,97.18,9.239,98.6q12.337,4.986,24.641,10.055a2.96,2.96,0,0,0,3.044-.194c9.634-5.86,19.308-11.653,28.968-17.471.481-.29.938-.62,1.531-1.015-.357-.265-.566-.45-.8-.591C56.561,83.333,46.505,77.266,36.408,71.27a2.857,2.857,0,0,0-2.2-.045c-8.293,3.312-16.553,6.706-24.83,10.055-3.844,1.555-7.51.149-8.9-3.358-1.366-3.45.283-6.951,4.021-8.5,1.887-.782,3.786-1.535,5.677-2.307,3.758-1.534,7.514-3.073,11.494-4.7-.761-.493-1.283-.851-1.824-1.178-4.7-2.837-9.42-5.648-14.1-8.519a9.216,9.216,0,0,1-2.4-2,6.339,6.339,0,0,1,.285-8.084A6.229,6.229,0,0,1,11.742,41.4c4.937,2.9,9.821,5.889,14.73,8.836.507.3,1.036.574,1.807,1-.114-1.359-.181-2.345-.282-3.327-.527-5.182-1.141-10.357-1.568-15.548-.325-3.95,2.094-6.838,5.778-7.217,3.507-.361,6.48,2.08,6.908,5.937.975,8.784,1.836,17.58,2.736,26.372.118,1.156.158,2.183,1.421,2.933,9.646,5.725,19.239,11.541,28.852,17.322.41.246.86.429,1.419.7.042-.527.084-.811.084-1.1,0-11.42.024-22.841-.045-34.261a3.1,3.1,0,0,0-1.134-2.1c-7.111-5.428-14.286-10.771-21.425-16.162C47.7,22.283,47,18.449,49.249,15.423c2.218-2.989,6.147-3.378,9.477-.9,4.548,3.388,9.073,6.808,13.614,10.205.335.25.724.428,1.291.759,0-6.018.131-11.754-.045-17.48C73.466,4.05,74.889,1.344,78.668,0" transform="translate(0)" fill="#2e58f0"/>
      </g>
    </g>
  </g>
</svg>
