<svg xmlns="http://www.w3.org/2000/svg" xmlns:xlink="http://www.w3.org/1999/xlink" width="250" height="250" viewBox="0 0 250 250">
  <defs>
    <clipPath id="clip-Calendar">
      <rect width="250" height="250"/>
    </clipPath>
  </defs>
  <g id="Calendar" clip-path="url(#clip-Calendar)">
    <path id="calendar_month_24dp_1F1F1F_FILL0_wght400_GRAD0_opsz24" d="M137.425-705.752a16.779,16.779,0,0,1-12.306-5.119A16.779,16.779,0,0,1,120-723.177V-845.15a16.781,16.781,0,0,1,5.119-12.307,16.782,16.782,0,0,1,12.306-5.118h8.712V-880h17.425v17.425h69.7V-880h17.425v17.425H259.4a16.782,16.782,0,0,1,12.306,5.118,16.781,16.781,0,0,1,5.118,12.307v121.973a16.779,16.779,0,0,1-5.118,12.306,16.778,16.778,0,0,1-12.306,5.119Zm0-17.425H259.4V-810.3H137.425Zm0-104.549H259.4V-845.15H137.425Zm0,0v0Zm60.987,52.274a8.43,8.43,0,0,1-6.208-2.5,8.429,8.429,0,0,1-2.5-6.208,8.432,8.432,0,0,1,2.5-6.208,8.43,8.43,0,0,1,6.208-2.5,8.43,8.43,0,0,1,6.208,2.5,8.431,8.431,0,0,1,2.5,6.208,8.428,8.428,0,0,1-2.5,6.208A8.43,8.43,0,0,1,198.412-775.452Zm-34.85,0a8.43,8.43,0,0,1-6.208-2.5,8.428,8.428,0,0,1-2.5-6.208,8.432,8.432,0,0,1,2.5-6.208,8.43,8.43,0,0,1,6.208-2.5,8.43,8.43,0,0,1,6.208,2.5,8.432,8.432,0,0,1,2.5,6.208,8.429,8.429,0,0,1-2.5,6.208A8.43,8.43,0,0,1,163.562-775.452Zm69.7,0a8.43,8.43,0,0,1-6.208-2.5,8.428,8.428,0,0,1-2.5-6.208,8.431,8.431,0,0,1,2.5-6.208,8.43,8.43,0,0,1,6.208-2.5,8.43,8.43,0,0,1,6.207,2.5,8.432,8.432,0,0,1,2.505,6.208,8.429,8.429,0,0,1-2.505,6.208A8.43,8.43,0,0,1,233.261-775.452Zm-34.85,34.85a8.433,8.433,0,0,1-6.208-2.5,8.433,8.433,0,0,1-2.5-6.209,8.423,8.423,0,0,1,2.5-6.205,8.429,8.429,0,0,1,6.208-2.508,8.428,8.428,0,0,1,6.208,2.508,8.423,8.423,0,0,1,2.5,6.205,8.432,8.432,0,0,1-2.5,6.209A8.432,8.432,0,0,1,198.412-740.6Zm-34.85,0a8.432,8.432,0,0,1-6.208-2.5,8.432,8.432,0,0,1-2.5-6.209,8.423,8.423,0,0,1,2.5-6.205,8.428,8.428,0,0,1,6.208-2.508,8.429,8.429,0,0,1,6.208,2.508,8.423,8.423,0,0,1,2.5,6.205,8.432,8.432,0,0,1-2.5,6.209A8.433,8.433,0,0,1,163.562-740.6Zm69.7,0a8.433,8.433,0,0,1-6.208-2.5,8.432,8.432,0,0,1-2.5-6.209,8.422,8.422,0,0,1,2.5-6.205,8.429,8.429,0,0,1,6.208-2.508,8.428,8.428,0,0,1,6.207,2.508,8.423,8.423,0,0,1,2.505,6.205,8.433,8.433,0,0,1-2.505,6.209A8.432,8.432,0,0,1,233.261-740.6Z" transform="translate(-68.051 917.876)" fill="#5f6368"/>
  </g>
</svg>
