<svg xmlns="http://www.w3.org/2000/svg" xmlns:xlink="http://www.w3.org/1999/xlink" width="250" height="250" viewBox="0 0 250 250">
  <defs>
    <clipPath id="clip-Follow_up">
      <rect width="250" height="250"/>
    </clipPath>
  </defs>
  <g id="Follow_up" data-name="Follow up" clip-path="url(#clip-Follow_up)">
    <path id="campaign_24dp_1F1F1F_FILL0_wght400_GRAD0_opsz24" d="M235.223-712.687v-19.4h38.806v19.4Zm11.642,67.911L215.82-668.06l11.642-15.522L258.507-660.3Zm-19.4-116.418L215.82-776.716,246.865-800l11.642,15.522ZM109.1-654.478v-38.806H99.4a18.683,18.683,0,0,1-13.7-5.7,18.684,18.684,0,0,1-5.7-13.7v-19.4a18.684,18.684,0,0,1,5.7-13.7,18.683,18.683,0,0,1,13.7-5.7h38.806l48.507-29.1v116.417l-48.507-29.1h-9.7v38.806Zm58.209-44.142v-47.537l-23.769,14.068H99.4v19.4h44.142Zm29.1,8.731v-65a44.31,44.31,0,0,1,10.55,14.189,41.884,41.884,0,0,1,4,18.311,41.888,41.888,0,0,1-4,18.312A44.311,44.311,0,0,1,196.418-689.888ZM133.358-722.388Z" transform="translate(-52.015 847.388)" fill="currentColor"/>
  </g>
</svg>
