<svg width="17" height="18" viewBox="0 0 17 18" fill="none" xmlns="http://www.w3.org/2000/svg">
<path d="M0 10.6627C0 8.6886 0.593229 6.79313 1.77969 4.97627C2.96615 3.15942 4.59531 1.56967 6.66719 0.207024C7.05677 -0.0550224 7.45981 -0.0682995 7.87631 0.167193C8.29281 0.402686 8.50071 0.756624 8.5 1.22901V2.59165C8.5 3.18562 8.70825 3.68351 9.12475 4.08532C9.54125 4.48712 10.0502 4.68802 10.6516 4.68802C10.9526 4.68802 11.2405 4.62234 11.5154 4.49096C11.7902 4.35959 12.0335 4.17197 12.2453 3.92809C12.387 3.75339 12.5687 3.64438 12.7904 3.60105C13.0121 3.55773 13.22 3.6056 13.4141 3.74466C14.5297 4.5308 15.4063 5.53531 16.0438 6.75819C16.6813 7.98108 17 9.28258 17 10.6627C17 12.2 16.6193 13.6022 15.8578 14.8691C15.0964 16.136 14.0958 17.1356 12.8563 17.8679C13.1573 17.4487 13.3921 16.9902 13.5607 16.4927C13.7293 15.9952 13.8132 15.4669 13.8125 14.9078C13.8125 14.2091 13.6797 13.5494 13.4141 12.9289C13.1484 12.3083 12.7677 11.7539 12.2719 11.2654L8.5 7.62295L4.75469 11.2654C4.24115 11.772 3.85156 12.3311 3.58594 12.9425C3.32031 13.5539 3.1875 14.2091 3.1875 14.9078C3.1875 15.4669 3.27179 15.9955 3.44037 16.4938C3.60896 16.992 3.84342 17.4504 4.14375 17.869C2.90417 17.1352 1.90365 16.1349 1.14219 14.868C0.380729 13.6011 0 12.1993 0 10.6627ZM8.5 10.5579L10.7578 12.7329C11.0589 13.0298 11.2891 13.3618 11.4484 13.7286C11.6078 14.0955 11.6875 14.4886 11.6875 14.9078C11.6875 15.7639 11.3776 16.4934 10.7578 17.0965C10.138 17.6995 9.38542 18.0007 8.5 18C7.61458 17.9993 6.86198 17.6981 6.24219 17.0965C5.6224 16.4948 5.3125 15.7653 5.3125 14.9078C5.3125 14.506 5.39219 14.1175 5.55156 13.7423C5.71094 13.367 5.94115 13.0305 6.24219 12.7329L8.5 10.5579Z" fill="#f02e2e"/>
</svg>
