<svg xmlns="http://www.w3.org/2000/svg" xmlns:xlink="http://www.w3.org/1999/xlink" width="250" height="250" viewBox="0 0 250 250">
  <defs>
    <clipPath id="clip-path">
      <rect id="Rectangle_9476" data-name="Rectangle 9476" width="187.738" height="187.708" fill="#ff1a61"/>
    </clipPath>
    <clipPath id="clip-Hot">
      <rect width="250" height="250"/>
    </clipPath>
  </defs>
  <g id="Hot" clip-path="url(#clip-Hot)">
    <g id="Group_37595" data-name="Group 37595" transform="translate(31.131 31.146)">
      <g id="Group_36899" data-name="Group 36899" clip-path="url(#clip-path)">
        <path id="Path_70671" data-name="Path 70671" d="M181.041,92.031a10.537,10.537,0,0,0-.455.956,9.083,9.083,0,0,1-8.728,6.352c-4.886.073-9.776.088-14.663,0a9.143,9.143,0,1,1,0-18.286c4.7-.089,9.409-.045,14.113-.017,4.749.028,7.781,2.235,9.372,6.727a3.555,3.555,0,0,0,.357.6Z" transform="translate(6.697 3.664)" fill="#ff1a61"/>
        <path id="Path_70672" data-name="Path 70672" d="M92.032,0a10.5,10.5,0,0,0,.956.455,9.086,9.086,0,0,1,6.358,8.723c.074,4.886.089,9.775,0,14.661a9.148,9.148,0,1,1-18.3,0c-.089-4.825-.065-9.652-.008-14.477A9.113,9.113,0,0,1,87.584.4a6.271,6.271,0,0,0,.781-.4Z" transform="translate(3.664)" fill="#ff1a61"/>
        <path id="Path_70673" data-name="Path 70673" d="M91.8,138.811a46.979,46.979,0,1,1,47.021-46.894A47.027,47.027,0,0,1,91.8,138.811" transform="translate(2.029 2.029)" fill="#ff1a61"/>
        <path id="Path_70674" data-name="Path 70674" d="M33.164,157.517c-3.966-.538-6.811-2.208-8.448-5.572s-1.473-6.822,1.054-9.6c3.779-4.146,7.741-8.154,11.909-11.906a9.044,9.044,0,0,1,12.727,12.706c-3.753,4.166-7.774,8.115-11.926,11.888-1.382,1.256-3.522,1.678-5.316,2.48" transform="translate(1.07 5.806)" fill="#ff1a61"/>
        <path id="Path_70675" data-name="Path 70675" d="M23.777,32.867a8.765,8.765,0,0,1,5.208-8.176c3.364-1.6,6.825-1.386,9.592,1.146,4.1,3.745,8.061,7.664,11.781,11.78A9.046,9.046,0,0,1,37.638,50.358a164.8,164.8,0,0,1-11.763-11.8c-1.289-1.427-1.731-3.623-2.559-5.467l.461-.228" transform="translate(1.055 1.071)" fill="#ff1a61"/>
        <path id="Path_70676" data-name="Path 70676" d="M147.661,23.344c3.968.527,6.811,2.192,8.456,5.554s1.483,6.823-1.035,9.6c-3.77,4.152-7.736,8.158-11.9,11.913a9.044,9.044,0,0,1-12.752-12.682,166.379,166.379,0,0,1,11.92-11.893c1.382-1.256,3.519-1.683,5.312-2.489" transform="translate(5.806 1.056)" fill="#ff1a61"/>
        <path id="Path_70677" data-name="Path 70677" d="M157.087,147.983a8.8,8.8,0,0,1-5.212,8.179c-3.288,1.562-6.727,1.427-9.445-1.043a167.152,167.152,0,0,1-12.039-12.033c-3.1-3.455-2.566-8.724.693-11.991a8.822,8.822,0,0,1,12.144-.607,165.024,165.024,0,0,1,11.757,11.8c1.291,1.428,1.73,3.625,2.559,5.471Z" transform="translate(5.805 5.806)" fill="#ff1a61"/>
        <path id="Path_70678" data-name="Path 70678" d="M99.365,164.478c0,2.443.054,4.888-.011,7.329a9.149,9.149,0,1,1-18.3.068c-.1-4.884-.09-9.774-.005-14.659a9.152,9.152,0,1,1,18.3-.068c.07,2.441.011,4.886.011,7.329" transform="translate(3.664 6.696)" fill="#ff1a61"/>
        <path id="Path_70679" data-name="Path 70679" d="M16.3,99.355c-2.383,0-4.767.057-7.146-.011a9.146,9.146,0,1,1,.024-18.292q7.33-.133,14.661,0a9.146,9.146,0,1,1-.027,18.292c-2.5.067-5.008.012-7.511.01" transform="translate(0 3.663)" fill="#ff1a61"/>
      </g>
    </g>
  </g>
</svg>
