<svg xmlns="http://www.w3.org/2000/svg" xmlns:xlink="http://www.w3.org/1999/xlink" width="250" height="250" viewBox="0 0 250 250">
  <defs>
    <clipPath id="clip-Helpdesk">
      <rect width="250" height="250"/>
    </clipPath>
  </defs>
  <g id="Helpdesk" clip-path="url(#clip-Helpdesk)">
    <path id="headset_mic_24dp_1F1F1F_FILL0_wght400_GRAD0_opsz24" d="M205.562-680.355V-699.37H272.11v-9.506H234.083v-76.057H272.11v-9.505q0-27.571-19.489-47.059t-47.059-19.49q-27.57,0-47.059,19.49t-19.489,47.059v9.505h38.028v76.057H139.014a18.309,18.309,0,0,1-13.428-5.586A18.307,18.307,0,0,1,120-727.89v-66.548a82.191,82.191,0,0,1,6.774-33.156,87.394,87.394,0,0,1,18.419-27.214,87.4,87.4,0,0,1,27.213-18.42A82.208,82.208,0,0,1,205.562-880a82.208,82.208,0,0,1,33.155,6.773,87.4,87.4,0,0,1,27.214,18.42,87.394,87.394,0,0,1,18.419,27.214,82.19,82.19,0,0,1,6.774,33.156v95.068a18.309,18.309,0,0,1-5.585,13.428,18.309,18.309,0,0,1-13.429,5.586ZM139.014-727.89h19.014v-38.027H139.014Zm114.083,0H272.11v-38.027H253.1ZM139.014-765.917h0Zm114.083,0h0Z" transform="translate(-80.562 905.179)" fill="#5f6368"/>
  </g>
</svg>
