<svg xmlns="http://www.w3.org/2000/svg" xmlns:xlink="http://www.w3.org/1999/xlink" width="250" height="250" viewBox="0 0 250 250">
  <defs>
    <clipPath id="clip-Open">
      <rect width="250" height="250"/>
    </clipPath>
  </defs>
  <g id="Open" clip-path="url(#clip-Open)">
    <path id="drafts_24dp_1F1F1F_FILL0_wght400_GRAD0_opsz24" d="M174.372-920l85.407,50.961a17.9,17.9,0,0,1,6.606,7.078,19.987,19.987,0,0,1,2.359,9.438v102.394A18.176,18.176,0,0,1,263.2-736.8a18.175,18.175,0,0,1-13.33,5.545h-151a18.176,18.176,0,0,1-13.33-5.545A18.176,18.176,0,0,1,80-750.131V-852.524a19.987,19.987,0,0,1,2.359-9.438,17.9,17.9,0,0,1,6.606-7.078Zm0,109.943,73.61-43.883-73.61-43.884-73.61,43.884Zm0,22.177-75.5-45.3v83.049h151v-83.049Zm0,37.749h0Z" transform="translate(-49.371 950.629)" fill="#5f6368"/>
  </g>
</svg>
