<svg width="14" height="18" viewBox="0 0 14 18" fill="none" xmlns="http://www.w3.org/2000/svg">
<path d="M8.3 17.725C8.2 17.8083 8.096 17.875 7.988 17.925C7.88 17.975 7.759 18 7.625 18C7.491 18 7.35767 17.9707 7.225 17.912C7.09234 17.8533 6.97567 17.7743 6.875 17.675C6.19167 16.9417 5.68734 16.1917 5.362 15.425C5.03667 14.6583 4.87467 13.85 4.876 13C4.876 12.3833 4.96767 11.7333 5.151 11.05C5.33434 10.3667 5.651 9.48334 6.101 8.40001C6.48434 7.45001 6.751 6.72101 6.901 6.21301C7.051 5.70501 7.126 5.23401 7.126 4.80001C7.126 4.23334 7.001 3.70434 6.751 3.21301C6.501 2.72168 6.10934 2.22568 5.576 1.72501C5.476 1.62501 5.397 1.50834 5.339 1.37501C5.281 1.24168 5.25167 1.10834 5.251 0.975011C5.25034 0.841678 5.27534 0.721011 5.326 0.613011C5.37667 0.505011 5.44334 0.400678 5.526 0.300011C5.626 0.200011 5.73834 0.125011 5.863 0.0750113C5.98767 0.0250113 6.11667 1.1236e-05 6.25 1.1236e-05C6.38334 1.1236e-05 6.50834 0.0250113 6.625 0.0750113C6.74167 0.125011 6.85 0.191678 6.95 0.275011C7.68334 0.958345 8.229 1.67501 8.587 2.42501C8.945 3.17501 9.12434 3.96668 9.125 4.80001C9.125 5.38334 9.03734 5.99601 8.862 6.63801C8.68667 7.28001 8.38267 8.11734 7.95 9.15001C7.53334 10.15 7.25 10.9167 7.1 11.45C6.95 11.9833 6.875 12.4917 6.875 12.975C6.875 13.5583 6.996 14.121 7.238 14.663C7.48 15.205 7.85067 15.7507 8.35 16.3C8.43334 16.4 8.5 16.5083 8.55 16.625C8.6 16.7417 8.625 16.8667 8.625 17C8.625 17.1333 8.6 17.2627 8.55 17.388C8.5 17.5133 8.41667 17.6257 8.3 17.725ZM13.175 17.725C13.075 17.8083 12.971 17.875 12.863 17.925C12.755 17.975 12.634 18 12.5 18C12.366 18 12.2327 17.9707 12.1 17.912C11.9673 17.8533 11.8507 17.7743 11.75 17.675C11.0667 16.9417 10.5623 16.1957 10.237 15.437C9.91167 14.6783 9.74934 13.8743 9.75 13.025C9.75 12.4083 9.84167 11.75 10.025 11.05C10.2083 10.35 10.525 9.46668 10.975 8.40001C11.3583 7.45001 11.625 6.72501 11.775 6.22501C11.925 5.72501 12 5.25834 12 4.82501C12 4.25834 11.875 3.72101 11.625 3.21301C11.375 2.70501 10.9833 2.20901 10.45 1.72501C10.35 1.62501 10.275 1.51268 10.225 1.38801C10.175 1.26334 10.15 1.13401 10.15 1.00001C10.15 0.866011 10.171 0.745011 10.213 0.637011C10.255 0.529011 10.3173 0.425011 10.4 0.325011C10.5 0.225011 10.6167 0.145678 10.75 0.0870111C10.8833 0.0283445 11.0167 -0.000655431 11.15 1.1236e-05C11.2833 0.000677903 11.4043 0.0256779 11.513 0.0750113C11.6217 0.124345 11.7257 0.191011 11.825 0.275011C12.5583 0.958345 13.1043 1.67501 13.463 2.42501C13.8217 3.17501 14.0007 3.96668 14 4.80001C14 5.38334 13.9127 5.99601 13.738 6.63801C13.5633 7.28001 13.259 8.12568 12.825 9.17501C12.4083 10.175 12.125 10.9417 11.975 11.475C11.825 12.0083 11.75 12.5083 11.75 12.975C11.75 13.5583 11.875 14.1293 12.125 14.688C12.375 15.2467 12.75 15.7923 13.25 16.325C13.3333 16.425 13.3957 16.5333 13.437 16.65C13.4783 16.7667 13.4993 16.8833 13.5 17C13.5 17.1333 13.475 17.2667 13.425 17.4C13.375 17.5333 13.2917 17.6417 13.175 17.725ZM3.425 17.725C3.325 17.8083 3.22067 17.875 3.112 17.925C3.00334 17.975 2.88267 18 2.75 18C2.61734 18 2.484 17.9707 2.35 17.912C2.216 17.8533 2.09934 17.7743 2 17.675C1.31667 16.9417 0.812335 16.1957 0.487002 15.437C0.161669 14.6783 -0.000664622 13.8743 2.04499e-06 13.025C2.04499e-06 12.4083 0.0916688 11.75 0.275002 11.05C0.458335 10.35 0.775002 9.46668 1.225 8.40001C1.60834 7.45001 1.875 6.72501 2.025 6.22501C2.175 5.72501 2.25 5.25834 2.25 4.82501C2.25 4.25834 2.125 3.72101 1.875 3.21301C1.625 2.70501 1.23334 2.20901 0.700002 1.72501C0.583335 1.62501 0.500002 1.51268 0.450002 1.38801C0.400002 1.26334 0.375002 1.13401 0.375002 1.00001C0.375002 0.866011 0.400002 0.741011 0.450002 0.625011C0.500002 0.509011 0.566669 0.400678 0.650002 0.300011C0.750002 0.200011 0.862669 0.125011 0.988002 0.0750113C1.11334 0.0250113 1.24234 1.1236e-05 1.375 1.1236e-05C1.50767 1.1236e-05 1.63267 0.0250113 1.75 0.0750113C1.86734 0.125011 1.97567 0.191678 2.075 0.275011C2.80834 0.958345 3.35434 1.67101 3.713 2.41301C4.07167 3.15501 4.25067 3.95068 4.25 4.80001C4.25 5.38334 4.16667 5.99601 4 6.63801C3.83334 7.28001 3.53334 8.11734 3.1 9.15001C2.68334 10.15 2.4 10.9167 2.25 11.45C2.1 11.9833 2.025 12.4917 2.025 12.975C2.025 13.5583 2.146 14.1293 2.388 14.688C2.63 15.2467 3.00067 15.7923 3.5 16.325C3.58334 16.425 3.646 16.5333 3.688 16.65C3.73 16.7667 3.75067 16.8833 3.75 17C3.75 17.1333 3.725 17.2667 3.675 17.4C3.625 17.5333 3.54167 17.6417 3.425 17.725Z" fill="#f07f2e"/>
</svg>
