<svg xmlns="http://www.w3.org/2000/svg" xmlns:xlink="http://www.w3.org/1999/xlink" width="250" height="250" viewBox="0 0 250 250">
  <defs>
    <clipPath id="clip-path">
      <rect id="Rectangle_9477" data-name="Rectangle 9477" width="212.771" height="138.688" fill="#ff9226"/>
    </clipPath>
    <clipPath id="clip-Warm">
      <rect width="250" height="250"/>
    </clipPath>
  </defs>
  <g id="Warm" clip-path="url(#clip-Warm)">
    <g id="Group_37591" data-name="Group 37591" transform="translate(18.614 55.656)">
      <g id="Group_36909" data-name="Group 36909" clip-path="url(#clip-path)">
        <path id="Path_70680" data-name="Path 70680" d="M274.636,103.483c3.157-.683,6.447-1,9.448-2.111,14.668-5.4,22.848-22.942,17.3-39.636-2.8-8.424-8.178-14.662-16.424-18.232a5.555,5.555,0,0,1-3.652-5.856,39.423,39.423,0,0,0-3.739-17.914C266.6-3.922,236.818-6.935,221.546,14.086c-2.968,4.085-4.661,4.437-9.016,1.728a26.086,26.086,0,0,0-11.491-3.87c-14.085-1.329-25.914,9.412-29.144,22.454a2.558,2.558,0,0,0,.654,1.922c1.279,1.45,2.841,2.664,4.024,4.181,1.083,1.388,1.961,1.341,3.476.66,10.746-4.832,21.369-4.471,31.67,1.3C220.987,47.651,226.9,55.592,230,65.668c.427,1.381,1.049,1.786,2.558,1.952,4.027.444,8.233.7,11.971,2.09,13.548,5.053,21.317,15.265,24.567,29.133,1.011,4.311.965,4.322,5.537,4.641" transform="translate(-90.359 0)" fill="#ff9226"/>
        <path id="Path_70681" data-name="Path 70681" d="M0,144.417a87.133,87.133,0,0,1,2.313-9c2.745-7.45,7.623-13.137,14.97-16.39,3.247-1.437,4.563-3.462,4.608-7.171.172-14.136,5.73-25.643,18.27-32.8,13.826-7.9,31.095-3.884,40.6,8.925,4.209,5.673,4.905,5.813,10.947,2.212,8.48-5.054,19.888-4.257,27.946,1.887a31.312,31.312,0,0,1,12.163,19.862c.759,4.08,2.77,5.531,6.668,4.935a25.221,25.221,0,0,1,21.505,6.479c13.543,12.119,14.049,34.022,1.154,46.837a25.467,25.467,0,0,1-18.4,7.885q-57.455.061-114.91-.014c-12.9-.033-23.906-9.707-26.963-23.211Q.437,152.96,0,151.067v-6.649" transform="translate(0 -39.436)" fill="#ff9226"/>
        <path id="Path_70682" data-name="Path 70682" d="M274.636,103.483c-4.572-.319-4.526-.33-5.537-4.641-3.25-13.868-11.019-24.08-24.567-29.133-3.737-1.394-7.943-1.646-11.971-2.09-1.509-.166-2.132-.571-2.558-1.952-3.107-10.075-9.016-18.016-18.284-23.208-10.3-5.77-20.924-6.132-31.67-1.3-1.515.681-2.394.728-3.476-.66-1.183-1.517-2.745-2.731-4.024-4.181a2.558,2.558,0,0,1-.654-1.922c3.231-13.042,15.06-23.783,29.144-22.454a26.086,26.086,0,0,1,11.491,3.87c4.355,2.709,6.048,2.357,9.016-1.728C236.818-6.935,266.6-3.922,277.569,19.733a39.423,39.423,0,0,1,3.739,17.914,5.555,5.555,0,0,0,3.652,5.856c8.246,3.57,13.623,9.808,16.424,18.232,5.55,16.694-2.631,34.231-17.3,39.636-3,1.106-6.291,1.427-9.448,2.111" transform="translate(-90.359 0)" fill="#ff9226"/>
      </g>
    </g>
  </g>
</svg>
